{
	"patcher" : 	{
		"fileversion" : 1,
		"appversion" : 		{
			"major" : 6,
			"minor" : 1,
			"revision" : 1,
			"architecture" : "x86"
		}
,
		"rect" : [ 847.0, 459.0, 362.0, 256.0 ],
		"bgcolor" : [ 1.0, 1.0, 1.0, 0.0 ],
		"bglocked" : 0,
		"openinpresentation" : 1,
		"default_fontsize" : 12.0,
		"default_fontface" : 0,
		"default_fontname" : "Arial",
		"gridonopen" : 0,
		"gridsize" : [ 15.0, 15.0 ],
		"gridsnaponopen" : 0,
		"statusbarvisible" : 2,
		"toolbarvisible" : 1,
		"boxanimatetime" : 200,
		"imprint" : 0,
		"enablehscroll" : 1,
		"enablevscroll" : 1,
		"devicewidth" : 0.0,
		"description" : "",
		"digest" : "",
		"tags" : "",
		"boxes" : [ 			{
				"box" : 				{
					"fontname" : "Arial Bold",
					"fontsize" : 10.0,
					"id" : "obj-10",
					"maxclass" : "newobj",
					"numinlets" : 0,
					"numoutlets" : 4,
					"outlettype" : [ "", "", "", "" ],
					"patching_rect" : [ 30.0, 30.0, 139.0, 18.0 ],
					"text" : "loom-colors"
				}

			}
, 			{
				"box" : 				{
					"fontname" : "Arial",
					"fontsize" : 10.0,
					"frgb" : 0.0,
					"id" : "obj-19",
					"maxclass" : "comment",
					"numinlets" : 1,
					"numoutlets" : 0,
					"patching_rect" : [ 210.0, 88.0, 52.0, 18.0 ],
					"presentation" : 1,
					"presentation_rect" : [ 45.0, 89.0, 52.0, 18.0 ],
					"text" : "Inertia",
					"textcolor" : [ 0.921569, 0.921569, 0.921569, 1.0 ]
				}

			}
, 			{
				"box" : 				{
					"appearance" : 2,
					"id" : "obj-22",
					"maxclass" : "live.numbox",
					"numinlets" : 1,
					"numoutlets" : 2,
					"outlettype" : [ "", "float" ],
					"parameter_enable" : 1,
					"patching_rect" : [ 210.0, 106.0, 64.0, 15.0 ],
					"presentation" : 1,
					"presentation_rect" : [ 50.0, 104.0, 45.0, 15.0 ],
					"saved_attribute_attributes" : 					{
						"valueof" : 						{
							"parameter_unitstyle" : 1,
							"parameter_mmax" : 1.0,
							"parameter_type" : 0,
							"parameter_shortname" : "live.numbox",
							"parameter_longname" : "live.numbox[1]"
						}

					}
,
					"varname" : "live.numbox[1]"
				}

			}
, 			{
				"box" : 				{
					"fontname" : "Arial",
					"fontsize" : 10.0,
					"frgb" : 0.0,
					"id" : "obj-14",
					"maxclass" : "comment",
					"numinlets" : 1,
					"numoutlets" : 0,
					"patching_rect" : [ 125.0, 88.0, 52.0, 18.0 ],
					"presentation" : 1,
					"presentation_rect" : [ 46.0, 57.0, 52.0, 18.0 ],
					"text" : "Deviation",
					"textcolor" : [ 0.921569, 0.921569, 0.921569, 1.0 ]
				}

			}
, 			{
				"box" : 				{
					"appearance" : 2,
					"id" : "obj-3",
					"maxclass" : "live.numbox",
					"numinlets" : 1,
					"numoutlets" : 2,
					"outlettype" : [ "", "float" ],
					"parameter_enable" : 1,
					"patching_rect" : [ 125.0, 106.0, 64.0, 15.0 ],
					"presentation" : 1,
					"presentation_rect" : [ 49.0, 72.0, 44.0, 15.0 ],
					"saved_attribute_attributes" : 					{
						"valueof" : 						{
							"parameter_unitstyle" : 1,
							"parameter_mmax" : 1.0,
							"parameter_type" : 0,
							"parameter_shortname" : "live.numbox",
							"parameter_longname" : "live.numbox"
						}

					}
,
					"varname" : "live.numbox"
				}

			}
, 			{
				"box" : 				{
					"fontname" : "Arial Bold",
					"id" : "obj-2",
					"ignoreclick" : 1,
					"maxclass" : "live.dial",
					"numinlets" : 1,
					"numoutlets" : 2,
					"outlettype" : [ "", "float" ],
					"parameter_enable" : 1,
					"patching_rect" : [ 59.0, 88.0, 44.0, 47.0 ],
					"presentation" : 1,
					"presentation_rect" : [ 3.0, 60.0, 47.0, 47.0 ],
					"saved_attribute_attributes" : 					{
						"valueof" : 						{
							"parameter_unitstyle" : 0,
							"parameter_type" : 0,
							"parameter_shortname" : "#1",
							"parameter_longname" : "live.dial"
						}

					}
,
					"varname" : "live.dial"
				}

			}
, 			{
				"box" : 				{
					"bgcolor" : [ 0.027451, 0.027451, 0.027451, 1.0 ],
					"id" : "obj-36",
					"maxclass" : "panel",
					"numinlets" : 1,
					"numoutlets" : 0,
					"patching_rect" : [ 59.0, 150.0, 195.0, 45.0 ],
					"presentation" : 1,
					"presentation_rect" : [ 4.5, 4.5, 90.0, 50.0 ]
				}

			}
, 			{
				"box" : 				{
					"bgcolor" : [ 0.168627, 0.168627, 0.168627, 1.0 ],
					"id" : "obj-4",
					"maxclass" : "panel",
					"numinlets" : 1,
					"numoutlets" : 0,
					"patching_rect" : [ 30.0, 60.0, 255.0, 165.0 ],
					"presentation" : 1,
					"presentation_rect" : [ 0.0, 0.0, 100.0, 124.0 ]
				}

			}
 ],
		"lines" : [ 			{
				"patchline" : 				{
					"destination" : [ "obj-14", 0 ],
					"disabled" : 0,
					"hidden" : 0,
					"source" : [ "obj-10", 3 ]
				}

			}
, 			{
				"patchline" : 				{
					"destination" : [ "obj-19", 0 ],
					"disabled" : 0,
					"hidden" : 0,
					"source" : [ "obj-10", 3 ]
				}

			}
, 			{
				"patchline" : 				{
					"destination" : [ "obj-36", 0 ],
					"disabled" : 0,
					"hidden" : 0,
					"source" : [ "obj-10", 2 ]
				}

			}
, 			{
				"patchline" : 				{
					"destination" : [ "obj-4", 0 ],
					"disabled" : 0,
					"hidden" : 0,
					"source" : [ "obj-10", 0 ]
				}

			}
 ],
		"parameters" : 		{
			"obj-22" : [ "live.numbox[1]", "live.numbox", 0 ],
			"obj-3" : [ "live.numbox", "live.numbox", 0 ],
			"obj-2" : [ "live.dial", "#1", 0 ]
		}
,
		"dependency_cache" : [ 			{
				"name" : "loom-colors.maxpat",
				"bootpath" : "/Users/adam/projects/loom/code/loom/max",
				"patcherrelativepath" : ".",
				"type" : "JSON",
				"implicit" : 1
			}
 ]
	}

}
