{
	"patcher" : 	{
		"fileversion" : 1,
		"appversion" : 		{
			"major" : 5,
			"minor" : 1,
			"revision" : 9
		}
,
		"rect" : [ 352.0, 72.0, 657.0, 440.0 ],
		"bglocked" : 0,
		"defrect" : [ 352.0, 72.0, 657.0, 440.0 ],
		"openrect" : [ 0.0, 0.0, 0.0, 0.0 ],
		"openinpresentation" : 0,
		"default_fontsize" : 12.0,
		"default_fontface" : 0,
		"default_fontname" : "Arial",
		"gridonopen" : 0,
		"gridsize" : [ 15.0, 15.0 ],
		"gridsnaponopen" : 0,
		"toolbarvisible" : 1,
		"boxanimatetime" : 200,
		"imprint" : 0,
		"enablehscroll" : 1,
		"enablevscroll" : 1,
		"devicewidth" : 0.0,
		"boxes" : [ 			{
				"box" : 				{
					"maxclass" : "newobj",
					"text" : "p init_player",
					"fontsize" : 14.0,
					"numinlets" : 2,
					"patching_rect" : [ 360.0, 95.0, 199.0, 23.0 ],
					"color" : [ 0.537255, 0.537255, 0.537255, 1.0 ],
					"numoutlets" : 2,
					"id" : "obj-20",
					"fontname" : "Arial Bold",
					"outlettype" : [ "", "" ],
					"patcher" : 					{
						"fileversion" : 1,
						"appversion" : 						{
							"major" : 5,
							"minor" : 1,
							"revision" : 9
						}
,
						"rect" : [ 834.0, 201.0, 832.0, 518.0 ],
						"bglocked" : 0,
						"defrect" : [ 834.0, 201.0, 832.0, 518.0 ],
						"openrect" : [ 0.0, 0.0, 0.0, 0.0 ],
						"openinpresentation" : 0,
						"default_fontsize" : 12.0,
						"default_fontface" : 0,
						"default_fontname" : "Arial",
						"gridonopen" : 0,
						"gridsize" : [ 15.0, 15.0 ],
						"gridsnaponopen" : 0,
						"toolbarvisible" : 1,
						"boxanimatetime" : 200,
						"imprint" : 0,
						"enablehscroll" : 1,
						"enablevscroll" : 1,
						"devicewidth" : 0.0,
						"visible" : 1,
						"boxes" : [ 							{
								"box" : 								{
									"maxclass" : "button",
									"numinlets" : 1,
									"patching_rect" : [ 330.0, 210.0, 20.0, 20.0 ],
									"numoutlets" : 1,
									"id" : "obj-10",
									"outlettype" : [ "bang" ]
								}

							}
, 							{
								"box" : 								{
									"maxclass" : "button",
									"numinlets" : 1,
									"patching_rect" : [ 495.0, 165.0, 20.0, 20.0 ],
									"numoutlets" : 1,
									"id" : "obj-13",
									"outlettype" : [ "bang" ]
								}

							}
, 							{
								"box" : 								{
									"maxclass" : "message",
									"text" : "Loaded.",
									"fontsize" : 12.0,
									"numinlets" : 2,
									"patching_rect" : [ 405.0, 240.0, 54.0, 18.0 ],
									"numoutlets" : 1,
									"id" : "obj-39",
									"fontname" : "Arial",
									"outlettype" : [ "" ]
								}

							}
, 							{
								"box" : 								{
									"maxclass" : "message",
									"text" : "Loading...",
									"fontsize" : 12.0,
									"numinlets" : 2,
									"patching_rect" : [ 330.0, 240.0, 63.0, 18.0 ],
									"numoutlets" : 1,
									"id" : "obj-35",
									"fontname" : "Arial",
									"outlettype" : [ "" ]
								}

							}
, 							{
								"box" : 								{
									"maxclass" : "newobj",
									"text" : "prepend set",
									"fontsize" : 12.0,
									"numinlets" : 1,
									"patching_rect" : [ 330.0, 270.0, 74.0, 20.0 ],
									"numoutlets" : 1,
									"id" : "obj-32",
									"fontname" : "Arial",
									"outlettype" : [ "" ]
								}

							}
, 							{
								"box" : 								{
									"maxclass" : "comment",
									"text" : "callback once ruby is loaded",
									"linecount" : 2,
									"fontsize" : 12.0,
									"numinlets" : 1,
									"patching_rect" : [ 495.0, 60.0, 150.0, 34.0 ],
									"numoutlets" : 0,
									"id" : "obj-9",
									"fontname" : "Arial"
								}

							}
, 							{
								"box" : 								{
									"maxclass" : "inlet",
									"numinlets" : 0,
									"patching_rect" : [ 495.0, 105.0, 25.0, 25.0 ],
									"numoutlets" : 1,
									"id" : "obj-4",
									"outlettype" : [ "" ],
									"comment" : ""
								}

							}
, 							{
								"box" : 								{
									"maxclass" : "newobj",
									"text" : "append 0",
									"fontsize" : 12.0,
									"numinlets" : 1,
									"patching_rect" : [ 495.0, 225.0, 61.0, 20.0 ],
									"numoutlets" : 1,
									"id" : "obj-63",
									"fontname" : "Arial",
									"outlettype" : [ "" ]
								}

							}
, 							{
								"box" : 								{
									"maxclass" : "newobj",
									"text" : "pv player_id",
									"fontsize" : 12.0,
									"numinlets" : 1,
									"patching_rect" : [ 495.0, 195.0, 75.0, 20.0 ],
									"numoutlets" : 1,
									"id" : "obj-62",
									"fontname" : "Arial",
									"outlettype" : [ "" ]
								}

							}
, 							{
								"box" : 								{
									"maxclass" : "newobj",
									"text" : "s reloading",
									"fontsize" : 12.0,
									"numinlets" : 1,
									"patching_rect" : [ 495.0, 255.0, 69.0, 20.0 ],
									"color" : [ 0.419608, 0.435294, 0.521569, 1.0 ],
									"numoutlets" : 0,
									"id" : "obj-18",
									"fontname" : "Arial"
								}

							}
, 							{
								"box" : 								{
									"maxclass" : "outlet",
									"numinlets" : 1,
									"patching_rect" : [ 330.0, 315.0, 25.0, 25.0 ],
									"numoutlets" : 0,
									"id" : "obj-3",
									"comment" : "load state (human readable)"
								}

							}
, 							{
								"box" : 								{
									"maxclass" : "outlet",
									"numinlets" : 1,
									"patching_rect" : [ 75.0, 285.0, 25.0, 25.0 ],
									"numoutlets" : 0,
									"id" : "obj-2",
									"comment" : "to_ruby"
								}

							}
, 							{
								"box" : 								{
									"maxclass" : "inlet",
									"numinlets" : 0,
									"patching_rect" : [ 30.0, 60.0, 25.0, 25.0 ],
									"numoutlets" : 1,
									"id" : "obj-1",
									"outlettype" : [ "" ],
									"comment" : ""
								}

							}
, 							{
								"box" : 								{
									"maxclass" : "message",
									"text" : "file player_external.rb",
									"fontsize" : 12.0,
									"numinlets" : 2,
									"patching_rect" : [ 75.0, 135.0, 125.0, 18.0 ],
									"numoutlets" : 1,
									"id" : "obj-46",
									"fontname" : "Arial",
									"outlettype" : [ "" ]
								}

							}
, 							{
								"box" : 								{
									"maxclass" : "newobj",
									"text" : "p player_id",
									"fontsize" : 12.0,
									"numinlets" : 0,
									"patching_rect" : [ 75.0, 45.0, 69.0, 20.0 ],
									"numoutlets" : 1,
									"id" : "obj-7",
									"fontname" : "Arial",
									"outlettype" : [ "" ],
									"patcher" : 									{
										"fileversion" : 1,
										"appversion" : 										{
											"major" : 5,
											"minor" : 1,
											"revision" : 9
										}
,
										"rect" : [ 78.0, 69.0, 408.0, 289.0 ],
										"bglocked" : 0,
										"defrect" : [ 78.0, 69.0, 408.0, 289.0 ],
										"openrect" : [ 0.0, 0.0, 0.0, 0.0 ],
										"openinpresentation" : 0,
										"default_fontsize" : 12.0,
										"default_fontface" : 0,
										"default_fontname" : "Arial",
										"gridonopen" : 0,
										"gridsize" : [ 15.0, 15.0 ],
										"gridsnaponopen" : 0,
										"toolbarvisible" : 1,
										"boxanimatetime" : 200,
										"imprint" : 0,
										"enablehscroll" : 1,
										"enablevscroll" : 1,
										"devicewidth" : 0.0,
										"boxes" : [ 											{
												"box" : 												{
													"maxclass" : "outlet",
													"numinlets" : 1,
													"patching_rect" : [ 30.0, 150.0, 25.0, 25.0 ],
													"numoutlets" : 0,
													"id" : "obj-2",
													"comment" : ""
												}

											}
, 											{
												"box" : 												{
													"maxclass" : "newobj",
													"text" : "route id",
													"fontsize" : 12.0,
													"numinlets" : 1,
													"patching_rect" : [ 30.0, 90.0, 51.0, 20.0 ],
													"numoutlets" : 2,
													"id" : "obj-7",
													"fontname" : "Arial",
													"outlettype" : [ "", "" ]
												}

											}
, 											{
												"box" : 												{
													"maxclass" : "newobj",
													"text" : "loadmess goto this_device canonical_parent",
													"fontsize" : 12.0,
													"numinlets" : 1,
													"patching_rect" : [ 30.0, 30.0, 248.0, 20.0 ],
													"numoutlets" : 1,
													"id" : "obj-4",
													"fontname" : "Arial",
													"outlettype" : [ "" ]
												}

											}
, 											{
												"box" : 												{
													"maxclass" : "newobj",
													"text" : "live.path",
													"fontsize" : 12.0,
													"numinlets" : 1,
													"patching_rect" : [ 30.0, 60.0, 55.0, 20.0 ],
													"numoutlets" : 3,
													"id" : "obj-1",
													"fontname" : "Arial",
													"outlettype" : [ "", "", "" ]
												}

											}
 ],
										"lines" : [ 											{
												"patchline" : 												{
													"source" : [ "obj-1", 1 ],
													"destination" : [ "obj-7", 0 ],
													"hidden" : 0,
													"midpoints" : [  ]
												}

											}
, 											{
												"patchline" : 												{
													"source" : [ "obj-4", 0 ],
													"destination" : [ "obj-1", 0 ],
													"hidden" : 0,
													"midpoints" : [  ]
												}

											}
, 											{
												"patchline" : 												{
													"source" : [ "obj-7", 0 ],
													"destination" : [ "obj-2", 0 ],
													"hidden" : 0,
													"midpoints" : [  ]
												}

											}
 ]
									}
,
									"saved_object_attributes" : 									{
										"globalpatchername" : "",
										"fontface" : 0,
										"fontsize" : 12.0,
										"default_fontface" : 0,
										"default_fontname" : "Arial",
										"fontname" : "Arial",
										"default_fontsize" : 12.0
									}

								}

							}
, 							{
								"box" : 								{
									"maxclass" : "newobj",
									"text" : "t i i i",
									"fontsize" : 12.0,
									"numinlets" : 1,
									"patching_rect" : [ 75.0, 75.0, 169.0, 20.0 ],
									"numoutlets" : 3,
									"id" : "obj-22",
									"fontname" : "Arial",
									"outlettype" : [ "int", "int", "int" ]
								}

							}
, 							{
								"box" : 								{
									"maxclass" : "newobj",
									"text" : "pv player_id",
									"fontsize" : 12.0,
									"numinlets" : 1,
									"patching_rect" : [ 225.0, 105.0, 75.0, 20.0 ],
									"numoutlets" : 1,
									"id" : "obj-64",
									"fontname" : "Arial",
									"outlettype" : [ "" ]
								}

							}
, 							{
								"box" : 								{
									"maxclass" : "newobj",
									"varname" : "reloading",
									"text" : "p reload",
									"fontsize" : 12.0,
									"numinlets" : 1,
									"patching_rect" : [ 75.0, 105.0, 54.0, 20.0 ],
									"numoutlets" : 1,
									"id" : "obj-6",
									"fontname" : "Arial",
									"outlettype" : [ "" ],
									"patcher" : 									{
										"fileversion" : 1,
										"appversion" : 										{
											"major" : 5,
											"minor" : 1,
											"revision" : 9
										}
,
										"rect" : [ 477.0, 101.0, 374.0, 415.0 ],
										"bglocked" : 0,
										"defrect" : [ 477.0, 101.0, 374.0, 415.0 ],
										"openrect" : [ 0.0, 0.0, 0.0, 0.0 ],
										"openinpresentation" : 0,
										"default_fontsize" : 12.0,
										"default_fontface" : 0,
										"default_fontname" : "Arial",
										"gridonopen" : 0,
										"gridsize" : [ 15.0, 15.0 ],
										"gridsnaponopen" : 0,
										"toolbarvisible" : 1,
										"boxanimatetime" : 200,
										"imprint" : 0,
										"enablehscroll" : 1,
										"enablevscroll" : 1,
										"devicewidth" : 0.0,
										"boxes" : [ 											{
												"box" : 												{
													"maxclass" : "outlet",
													"numinlets" : 1,
													"patching_rect" : [ 45.0, 255.0, 25.0, 25.0 ],
													"numoutlets" : 0,
													"id" : "obj-25",
													"comment" : ""
												}

											}
, 											{
												"box" : 												{
													"maxclass" : "inlet",
													"numinlets" : 0,
													"patching_rect" : [ 150.0, 45.0, 25.0, 25.0 ],
													"numoutlets" : 1,
													"id" : "obj-2",
													"outlettype" : [ "int" ],
													"comment" : "player_id"
												}

											}
, 											{
												"box" : 												{
													"maxclass" : "newobj",
													"text" : "p this_track?",
													"fontsize" : 12.0,
													"numinlets" : 2,
													"patching_rect" : [ 45.0, 150.0, 79.0, 20.0 ],
													"numoutlets" : 1,
													"id" : "obj-61",
													"fontname" : "Arial",
													"outlettype" : [ "" ],
													"patcher" : 													{
														"fileversion" : 1,
														"appversion" : 														{
															"major" : 5,
															"minor" : 1,
															"revision" : 9
														}
,
														"rect" : [ 777.0, 70.0, 367.0, 422.0 ],
														"bglocked" : 0,
														"defrect" : [ 777.0, 70.0, 367.0, 422.0 ],
														"openrect" : [ 0.0, 0.0, 0.0, 0.0 ],
														"openinpresentation" : 0,
														"default_fontsize" : 12.0,
														"default_fontface" : 0,
														"default_fontname" : "Arial",
														"gridonopen" : 0,
														"gridsize" : [ 15.0, 15.0 ],
														"gridsnaponopen" : 0,
														"toolbarvisible" : 1,
														"boxanimatetime" : 200,
														"imprint" : 0,
														"enablehscroll" : 1,
														"enablevscroll" : 1,
														"devicewidth" : 0.0,
														"boxes" : [ 															{
																"box" : 																{
																	"maxclass" : "newobj",
																	"text" : "swap",
																	"fontsize" : 12.0,
																	"numinlets" : 2,
																	"patching_rect" : [ 75.0, 255.0, 39.0, 20.0 ],
																	"numoutlets" : 2,
																	"id" : "obj-25",
																	"fontname" : "Arial",
																	"outlettype" : [ "int", "int" ]
																}

															}
, 															{
																"box" : 																{
																	"maxclass" : "newobj",
																	"text" : "gate",
																	"fontsize" : 12.0,
																	"numinlets" : 2,
																	"patching_rect" : [ 75.0, 285.0, 34.0, 20.0 ],
																	"numoutlets" : 1,
																	"id" : "obj-24",
																	"fontname" : "Arial",
																	"outlettype" : [ "" ]
																}

															}
, 															{
																"box" : 																{
																	"maxclass" : "newobj",
																	"text" : "t l l",
																	"fontsize" : 12.0,
																	"numinlets" : 1,
																	"patching_rect" : [ 45.0, 90.0, 32.5, 20.0 ],
																	"numoutlets" : 2,
																	"id" : "obj-23",
																	"fontname" : "Arial",
																	"outlettype" : [ "", "" ]
																}

															}
, 															{
																"box" : 																{
																	"maxclass" : "newobj",
																	"text" : "gate 2",
																	"fontsize" : 12.0,
																	"numinlets" : 2,
																	"patching_rect" : [ 45.0, 150.0, 49.0, 20.0 ],
																	"numoutlets" : 2,
																	"id" : "obj-14",
																	"fontname" : "Arial",
																	"outlettype" : [ "", "" ]
																}

															}
, 															{
																"box" : 																{
																	"maxclass" : "comment",
																	"text" : "reloading args may be global (just a 1/0) or targeted to this player ID (id followed by 1/0).",
																	"linecount" : 3,
																	"fontsize" : 12.0,
																	"numinlets" : 1,
																	"patching_rect" : [ 105.0, 90.0, 168.0, 48.0 ],
																	"numoutlets" : 0,
																	"id" : "obj-9",
																	"fontname" : "Arial"
																}

															}
, 															{
																"box" : 																{
																	"maxclass" : "newobj",
																	"text" : "zl len",
																	"fontsize" : 12.0,
																	"numinlets" : 2,
																	"patching_rect" : [ 45.0, 120.0, 39.0, 20.0 ],
																	"numoutlets" : 2,
																	"id" : "obj-5",
																	"fontname" : "Arial",
																	"outlettype" : [ "", "" ]
																}

															}
, 															{
																"box" : 																{
																	"maxclass" : "newobj",
																	"text" : "==",
																	"fontsize" : 12.0,
																	"numinlets" : 2,
																	"patching_rect" : [ 75.0, 225.0, 93.5, 20.0 ],
																	"numoutlets" : 1,
																	"id" : "obj-56",
																	"fontname" : "Arial",
																	"outlettype" : [ "int" ]
																}

															}
, 															{
																"box" : 																{
																	"maxclass" : "newobj",
																	"text" : "zl slice 1",
																	"fontsize" : 12.0,
																	"numinlets" : 2,
																	"patching_rect" : [ 75.0, 195.0, 57.0, 20.0 ],
																	"numoutlets" : 2,
																	"id" : "obj-54",
																	"fontname" : "Arial",
																	"outlettype" : [ "", "" ]
																}

															}
, 															{
																"box" : 																{
																	"maxclass" : "outlet",
																	"annotation" : "",
																	"numinlets" : 1,
																	"patching_rect" : [ 45.0, 330.0, 25.0, 25.0 ],
																	"numoutlets" : 0,
																	"id" : "obj-3",
																	"comment" : "gate switch"
																}

															}
, 															{
																"box" : 																{
																	"maxclass" : "inlet",
																	"numinlets" : 0,
																	"patching_rect" : [ 150.0, 165.0, 25.0, 25.0 ],
																	"numoutlets" : 1,
																	"id" : "obj-2",
																	"outlettype" : [ "int" ],
																	"comment" : "player_id"
																}

															}
, 															{
																"box" : 																{
																	"maxclass" : "inlet",
																	"numinlets" : 0,
																	"patching_rect" : [ 45.0, 30.0, 25.0, 25.0 ],
																	"numoutlets" : 1,
																	"id" : "obj-1",
																	"outlettype" : [ "" ],
																	"comment" : "reloading_msg"
																}

															}
 ],
														"lines" : [ 															{
																"patchline" : 																{
																	"source" : [ "obj-54", 0 ],
																	"destination" : [ "obj-56", 0 ],
																	"hidden" : 0,
																	"midpoints" : [  ]
																}

															}
, 															{
																"patchline" : 																{
																	"source" : [ "obj-2", 0 ],
																	"destination" : [ "obj-56", 1 ],
																	"hidden" : 0,
																	"midpoints" : [  ]
																}

															}
, 															{
																"patchline" : 																{
																	"source" : [ "obj-5", 0 ],
																	"destination" : [ "obj-14", 0 ],
																	"hidden" : 0,
																	"midpoints" : [  ]
																}

															}
, 															{
																"patchline" : 																{
																	"source" : [ "obj-14", 1 ],
																	"destination" : [ "obj-54", 0 ],
																	"hidden" : 0,
																	"midpoints" : [  ]
																}

															}
, 															{
																"patchline" : 																{
																	"source" : [ "obj-14", 0 ],
																	"destination" : [ "obj-3", 0 ],
																	"hidden" : 0,
																	"midpoints" : [  ]
																}

															}
, 															{
																"patchline" : 																{
																	"source" : [ "obj-1", 0 ],
																	"destination" : [ "obj-23", 0 ],
																	"hidden" : 0,
																	"midpoints" : [  ]
																}

															}
, 															{
																"patchline" : 																{
																	"source" : [ "obj-23", 1 ],
																	"destination" : [ "obj-5", 0 ],
																	"hidden" : 0,
																	"midpoints" : [  ]
																}

															}
, 															{
																"patchline" : 																{
																	"source" : [ "obj-23", 0 ],
																	"destination" : [ "obj-14", 1 ],
																	"hidden" : 0,
																	"midpoints" : [  ]
																}

															}
, 															{
																"patchline" : 																{
																	"source" : [ "obj-24", 0 ],
																	"destination" : [ "obj-3", 0 ],
																	"hidden" : 0,
																	"midpoints" : [  ]
																}

															}
, 															{
																"patchline" : 																{
																	"source" : [ "obj-56", 0 ],
																	"destination" : [ "obj-25", 0 ],
																	"hidden" : 0,
																	"midpoints" : [  ]
																}

															}
, 															{
																"patchline" : 																{
																	"source" : [ "obj-54", 1 ],
																	"destination" : [ "obj-25", 1 ],
																	"hidden" : 0,
																	"midpoints" : [  ]
																}

															}
, 															{
																"patchline" : 																{
																	"source" : [ "obj-25", 1 ],
																	"destination" : [ "obj-24", 0 ],
																	"hidden" : 0,
																	"midpoints" : [  ]
																}

															}
, 															{
																"patchline" : 																{
																	"source" : [ "obj-25", 0 ],
																	"destination" : [ "obj-24", 1 ],
																	"hidden" : 0,
																	"midpoints" : [  ]
																}

															}
 ]
													}
,
													"saved_object_attributes" : 													{
														"globalpatchername" : "",
														"fontface" : 0,
														"fontsize" : 12.0,
														"default_fontface" : 0,
														"default_fontname" : "Arial",
														"fontname" : "Arial",
														"default_fontsize" : 12.0
													}

												}

											}
, 											{
												"box" : 												{
													"maxclass" : "newobj",
													"text" : "r loom_reload_go",
													"fontsize" : 12.0,
													"numinlets" : 0,
													"patching_rect" : [ 135.0, 150.0, 104.0, 20.0 ],
													"color" : [ 0.419608, 0.435294, 0.521569, 1.0 ],
													"numoutlets" : 1,
													"id" : "obj-31",
													"fontname" : "Arial",
													"outlettype" : [ "" ]
												}

											}
, 											{
												"box" : 												{
													"maxclass" : "newobj",
													"text" : "gate",
													"fontsize" : 12.0,
													"numinlets" : 2,
													"patching_rect" : [ 45.0, 180.0, 109.0, 20.0 ],
													"numoutlets" : 1,
													"id" : "obj-29",
													"fontname" : "Arial",
													"outlettype" : [ "" ]
												}

											}
, 											{
												"box" : 												{
													"maxclass" : "newobj",
													"text" : "r loom_reloading",
													"fontsize" : 12.0,
													"numinlets" : 0,
													"patching_rect" : [ 45.0, 120.0, 100.0, 20.0 ],
													"color" : [ 0.419608, 0.435294, 0.521569, 1.0 ],
													"numoutlets" : 1,
													"id" : "obj-28",
													"fontname" : "Arial",
													"outlettype" : [ "" ]
												}

											}
 ],
										"lines" : [ 											{
												"patchline" : 												{
													"source" : [ "obj-29", 0 ],
													"destination" : [ "obj-25", 0 ],
													"hidden" : 0,
													"midpoints" : [  ]
												}

											}
, 											{
												"patchline" : 												{
													"source" : [ "obj-2", 0 ],
													"destination" : [ "obj-61", 1 ],
													"hidden" : 0,
													"midpoints" : [  ]
												}

											}
, 											{
												"patchline" : 												{
													"source" : [ "obj-61", 0 ],
													"destination" : [ "obj-29", 0 ],
													"hidden" : 0,
													"midpoints" : [  ]
												}

											}
, 											{
												"patchline" : 												{
													"source" : [ "obj-28", 0 ],
													"destination" : [ "obj-61", 0 ],
													"hidden" : 0,
													"midpoints" : [  ]
												}

											}
, 											{
												"patchline" : 												{
													"source" : [ "obj-31", 0 ],
													"destination" : [ "obj-29", 1 ],
													"hidden" : 0,
													"midpoints" : [  ]
												}

											}
 ]
									}
,
									"saved_object_attributes" : 									{
										"globalpatchername" : "",
										"fontface" : 0,
										"fontsize" : 12.0,
										"default_fontface" : 0,
										"default_fontname" : "Arial",
										"fontname" : "Arial",
										"default_fontsize" : 12.0
									}

								}

							}
, 							{
								"box" : 								{
									"maxclass" : "newobj",
									"text" : "sprintf context player_%i",
									"fontsize" : 12.0,
									"numinlets" : 1,
									"patching_rect" : [ 150.0, 225.0, 141.0, 20.0 ],
									"numoutlets" : 1,
									"id" : "obj-5",
									"fontname" : "Arial",
									"outlettype" : [ "" ]
								}

							}
 ],
						"lines" : [ 							{
								"patchline" : 								{
									"source" : [ "obj-1", 0 ],
									"destination" : [ "obj-46", 0 ],
									"hidden" : 0,
									"midpoints" : [  ]
								}

							}
, 							{
								"patchline" : 								{
									"source" : [ "obj-46", 0 ],
									"destination" : [ "obj-10", 0 ],
									"hidden" : 0,
									"midpoints" : [  ]
								}

							}
, 							{
								"patchline" : 								{
									"source" : [ "obj-10", 0 ],
									"destination" : [ "obj-35", 0 ],
									"hidden" : 0,
									"midpoints" : [  ]
								}

							}
, 							{
								"patchline" : 								{
									"source" : [ "obj-6", 0 ],
									"destination" : [ "obj-46", 0 ],
									"hidden" : 0,
									"midpoints" : [  ]
								}

							}
, 							{
								"patchline" : 								{
									"source" : [ "obj-22", 0 ],
									"destination" : [ "obj-6", 0 ],
									"hidden" : 0,
									"midpoints" : [  ]
								}

							}
, 							{
								"patchline" : 								{
									"source" : [ "obj-22", 1 ],
									"destination" : [ "obj-5", 0 ],
									"hidden" : 0,
									"midpoints" : [  ]
								}

							}
, 							{
								"patchline" : 								{
									"source" : [ "obj-22", 2 ],
									"destination" : [ "obj-64", 0 ],
									"hidden" : 0,
									"midpoints" : [  ]
								}

							}
, 							{
								"patchline" : 								{
									"source" : [ "obj-7", 0 ],
									"destination" : [ "obj-22", 0 ],
									"hidden" : 0,
									"midpoints" : [  ]
								}

							}
, 							{
								"patchline" : 								{
									"source" : [ "obj-5", 0 ],
									"destination" : [ "obj-2", 0 ],
									"hidden" : 0,
									"midpoints" : [  ]
								}

							}
, 							{
								"patchline" : 								{
									"source" : [ "obj-46", 0 ],
									"destination" : [ "obj-2", 0 ],
									"hidden" : 0,
									"midpoints" : [  ]
								}

							}
, 							{
								"patchline" : 								{
									"source" : [ "obj-63", 0 ],
									"destination" : [ "obj-18", 0 ],
									"hidden" : 0,
									"midpoints" : [  ]
								}

							}
, 							{
								"patchline" : 								{
									"source" : [ "obj-62", 0 ],
									"destination" : [ "obj-63", 0 ],
									"hidden" : 0,
									"midpoints" : [  ]
								}

							}
, 							{
								"patchline" : 								{
									"source" : [ "obj-35", 0 ],
									"destination" : [ "obj-32", 0 ],
									"hidden" : 0,
									"midpoints" : [  ]
								}

							}
, 							{
								"patchline" : 								{
									"source" : [ "obj-39", 0 ],
									"destination" : [ "obj-32", 0 ],
									"hidden" : 0,
									"midpoints" : [  ]
								}

							}
, 							{
								"patchline" : 								{
									"source" : [ "obj-32", 0 ],
									"destination" : [ "obj-3", 0 ],
									"hidden" : 0,
									"midpoints" : [  ]
								}

							}
, 							{
								"patchline" : 								{
									"source" : [ "obj-4", 0 ],
									"destination" : [ "obj-13", 0 ],
									"hidden" : 0,
									"midpoints" : [  ]
								}

							}
, 							{
								"patchline" : 								{
									"source" : [ "obj-13", 0 ],
									"destination" : [ "obj-62", 0 ],
									"hidden" : 0,
									"midpoints" : [  ]
								}

							}
, 							{
								"patchline" : 								{
									"source" : [ "obj-13", 0 ],
									"destination" : [ "obj-39", 0 ],
									"hidden" : 0,
									"midpoints" : [  ]
								}

							}
 ]
					}
,
					"saved_object_attributes" : 					{
						"globalpatchername" : "",
						"fontface" : 0,
						"fontsize" : 12.0,
						"default_fontface" : 0,
						"default_fontname" : "Arial",
						"fontname" : "Arial",
						"default_fontsize" : 12.0
					}

				}

			}
, 			{
				"box" : 				{
					"maxclass" : "newobj",
					"text" : "p check_in",
					"fontsize" : 14.0,
					"numinlets" : 2,
					"patching_rect" : [ 360.0, 320.0, 199.0, 23.0 ],
					"color" : [ 0.537255, 0.537255, 0.537255, 1.0 ],
					"numoutlets" : 1,
					"id" : "obj-19",
					"fontname" : "Arial Bold",
					"outlettype" : [ "" ],
					"patcher" : 					{
						"fileversion" : 1,
						"appversion" : 						{
							"major" : 5,
							"minor" : 1,
							"revision" : 9
						}
,
						"rect" : [ 76.0, 69.0, 374.0, 383.0 ],
						"bglocked" : 0,
						"defrect" : [ 76.0, 69.0, 374.0, 383.0 ],
						"openrect" : [ 0.0, 0.0, 0.0, 0.0 ],
						"openinpresentation" : 0,
						"default_fontsize" : 12.0,
						"default_fontface" : 0,
						"default_fontname" : "Arial",
						"gridonopen" : 0,
						"gridsize" : [ 15.0, 15.0 ],
						"gridsnaponopen" : 0,
						"toolbarvisible" : 1,
						"boxanimatetime" : 200,
						"imprint" : 0,
						"enablehscroll" : 1,
						"enablevscroll" : 1,
						"devicewidth" : 0.0,
						"boxes" : [ 							{
								"box" : 								{
									"maxclass" : "inlet",
									"numinlets" : 0,
									"patching_rect" : [ 135.0, 75.0, 25.0, 25.0 ],
									"numoutlets" : 1,
									"id" : "obj-8",
									"outlettype" : [ "" ],
									"comment" : "reloaded"
								}

							}
, 							{
								"box" : 								{
									"maxclass" : "inlet",
									"numinlets" : 0,
									"patching_rect" : [ 90.0, 75.0, 25.0, 25.0 ],
									"numoutlets" : 1,
									"id" : "obj-7",
									"outlettype" : [ "bang" ],
									"comment" : "event dispatched"
								}

							}
, 							{
								"box" : 								{
									"maxclass" : "message",
									"text" : "eval check_in $1",
									"fontsize" : 12.0,
									"numinlets" : 2,
									"patching_rect" : [ 120.0, 210.0, 100.0, 18.0 ],
									"numoutlets" : 1,
									"id" : "obj-4",
									"fontname" : "Arial",
									"outlettype" : [ "" ]
								}

							}
, 							{
								"box" : 								{
									"maxclass" : "outlet",
									"numinlets" : 1,
									"patching_rect" : [ 120.0, 270.0, 25.0, 25.0 ],
									"numoutlets" : 0,
									"id" : "obj-1",
									"comment" : "check_in"
								}

							}
, 							{
								"box" : 								{
									"maxclass" : "newobj",
									"text" : "p if_playing?",
									"fontsize" : 12.0,
									"numinlets" : 1,
									"patching_rect" : [ 135.0, 120.0, 78.0, 20.0 ],
									"numoutlets" : 1,
									"id" : "obj-16",
									"fontname" : "Arial",
									"outlettype" : [ "bang" ],
									"patcher" : 									{
										"fileversion" : 1,
										"appversion" : 										{
											"major" : 5,
											"minor" : 1,
											"revision" : 9
										}
,
										"rect" : [ 105.0, 94.0, 640.0, 480.0 ],
										"bglocked" : 0,
										"defrect" : [ 105.0, 94.0, 640.0, 480.0 ],
										"openrect" : [ 0.0, 0.0, 0.0, 0.0 ],
										"openinpresentation" : 0,
										"default_fontsize" : 12.0,
										"default_fontface" : 0,
										"default_fontname" : "Arial",
										"gridonopen" : 0,
										"gridsize" : [ 15.0, 15.0 ],
										"gridsnaponopen" : 0,
										"toolbarvisible" : 1,
										"boxanimatetime" : 200,
										"imprint" : 0,
										"enablehscroll" : 1,
										"enablevscroll" : 1,
										"devicewidth" : 0.0,
										"boxes" : [ 											{
												"box" : 												{
													"maxclass" : "outlet",
													"numinlets" : 1,
													"patching_rect" : [ 120.0, 165.0, 25.0, 25.0 ],
													"numoutlets" : 0,
													"id" : "obj-2",
													"comment" : ""
												}

											}
, 											{
												"box" : 												{
													"maxclass" : "inlet",
													"numinlets" : 0,
													"patching_rect" : [ 30.0, 30.0, 25.0, 25.0 ],
													"numoutlets" : 1,
													"id" : "obj-1",
													"outlettype" : [ "" ],
													"comment" : ""
												}

											}
, 											{
												"box" : 												{
													"maxclass" : "newobj",
													"text" : "sel 1",
													"fontsize" : 12.0,
													"numinlets" : 2,
													"patching_rect" : [ 120.0, 120.0, 36.0, 20.0 ],
													"numoutlets" : 2,
													"id" : "obj-9",
													"fontname" : "Arial",
													"outlettype" : [ "bang", "" ]
												}

											}
, 											{
												"box" : 												{
													"maxclass" : "newobj",
													"text" : "transport",
													"fontsize" : 12.0,
													"numinlets" : 2,
													"patching_rect" : [ 30.0, 90.0, 139.0, 20.0 ],
													"numoutlets" : 9,
													"id" : "obj-7",
													"fontname" : "Arial",
													"outlettype" : [ "int", "int", "float", "float", "float", "", "int", "float", "" ]
												}

											}
 ],
										"lines" : [ 											{
												"patchline" : 												{
													"source" : [ "obj-9", 0 ],
													"destination" : [ "obj-2", 0 ],
													"hidden" : 0,
													"midpoints" : [  ]
												}

											}
, 											{
												"patchline" : 												{
													"source" : [ "obj-1", 0 ],
													"destination" : [ "obj-7", 0 ],
													"hidden" : 0,
													"midpoints" : [  ]
												}

											}
, 											{
												"patchline" : 												{
													"source" : [ "obj-7", 6 ],
													"destination" : [ "obj-9", 0 ],
													"hidden" : 0,
													"midpoints" : [  ]
												}

											}
 ]
									}
,
									"saved_object_attributes" : 									{
										"globalpatchername" : "",
										"fontface" : 0,
										"fontsize" : 12.0,
										"default_fontface" : 0,
										"default_fontname" : "Arial",
										"fontname" : "Arial",
										"default_fontsize" : 12.0
									}

								}

							}
, 							{
								"box" : 								{
									"maxclass" : "newobj",
									"text" : "timepoint 0",
									"fontsize" : 12.0,
									"numinlets" : 1,
									"patching_rect" : [ 225.0, 120.0, 70.0, 20.0 ],
									"numoutlets" : 1,
									"id" : "obj-12",
									"fontname" : "Arial",
									"outlettype" : [ "bang" ]
								}

							}
, 							{
								"box" : 								{
									"maxclass" : "newobj",
									"text" : "when",
									"fontsize" : 12.0,
									"numinlets" : 1,
									"patching_rect" : [ 90.0, 165.0, 49.0, 20.0 ],
									"numoutlets" : 2,
									"id" : "obj-23",
									"fontname" : "Arial",
									"outlettype" : [ "list", "bang" ]
								}

							}
 ],
						"lines" : [ 							{
								"patchline" : 								{
									"source" : [ "obj-16", 0 ],
									"destination" : [ "obj-23", 0 ],
									"hidden" : 0,
									"midpoints" : [  ]
								}

							}
, 							{
								"patchline" : 								{
									"source" : [ "obj-12", 0 ],
									"destination" : [ "obj-23", 0 ],
									"hidden" : 0,
									"midpoints" : [  ]
								}

							}
, 							{
								"patchline" : 								{
									"source" : [ "obj-23", 1 ],
									"destination" : [ "obj-4", 0 ],
									"hidden" : 0,
									"midpoints" : [  ]
								}

							}
, 							{
								"patchline" : 								{
									"source" : [ "obj-4", 0 ],
									"destination" : [ "obj-1", 0 ],
									"hidden" : 0,
									"midpoints" : [  ]
								}

							}
, 							{
								"patchline" : 								{
									"source" : [ "obj-7", 0 ],
									"destination" : [ "obj-23", 0 ],
									"hidden" : 0,
									"midpoints" : [  ]
								}

							}
, 							{
								"patchline" : 								{
									"source" : [ "obj-8", 0 ],
									"destination" : [ "obj-16", 0 ],
									"hidden" : 0,
									"midpoints" : [  ]
								}

							}
 ]
					}
,
					"saved_object_attributes" : 					{
						"globalpatchername" : "",
						"fontface" : 0,
						"fontsize" : 12.0,
						"default_fontface" : 0,
						"default_fontname" : "Arial",
						"fontname" : "Arial",
						"default_fontsize" : 12.0
					}

				}

			}
, 			{
				"box" : 				{
					"maxclass" : "inlet",
					"numinlets" : 0,
					"patching_rect" : [ 360.0, 35.0, 25.0, 25.0 ],
					"numoutlets" : 1,
					"id" : "obj-11",
					"outlettype" : [ "" ],
					"comment" : "reload (bang)"
				}

			}
, 			{
				"box" : 				{
					"maxclass" : "outlet",
					"numinlets" : 1,
					"patching_rect" : [ 510.0, 260.0, 25.0, 25.0 ],
					"numoutlets" : 0,
					"id" : "obj-9",
					"comment" : "Ruby loaded"
				}

			}
, 			{
				"box" : 				{
					"maxclass" : "newobj",
					"text" : "prepend eval",
					"fontsize" : 12.0,
					"numinlets" : 1,
					"patching_rect" : [ 255.0, 140.0, 80.0, 20.0 ],
					"color" : [ 0.827451, 0.827451, 0.827451, 1.0 ],
					"numoutlets" : 1,
					"id" : "obj-8",
					"fontname" : "Arial",
					"outlettype" : [ "" ]
				}

			}
, 			{
				"box" : 				{
					"maxclass" : "inlet",
					"numinlets" : 0,
					"patching_rect" : [ 255.0, 95.0, 25.0, 25.0 ],
					"numoutlets" : 1,
					"id" : "obj-3",
					"outlettype" : [ "" ],
					"comment" : "eval to ruby"
				}

			}
, 			{
				"box" : 				{
					"maxclass" : "outlet",
					"numinlets" : 1,
					"patching_rect" : [ 540.0, 155.0, 25.0, 25.0 ],
					"numoutlets" : 0,
					"id" : "obj-30",
					"comment" : "status_message"
				}

			}
, 			{
				"box" : 				{
					"maxclass" : "newobj",
					"text" : "p dispatch_events",
					"fontsize" : 14.0,
					"numinlets" : 1,
					"patching_rect" : [ 360.0, 260.0, 133.0, 23.0 ],
					"color" : [ 0.537255, 0.537255, 0.537255, 1.0 ],
					"numoutlets" : 1,
					"id" : "obj-14",
					"fontname" : "Arial Bold",
					"outlettype" : [ "bang" ],
					"patcher" : 					{
						"fileversion" : 1,
						"appversion" : 						{
							"major" : 5,
							"minor" : 1,
							"revision" : 9
						}
,
						"rect" : [ 1184.0, 583.0, 496.0, 428.0 ],
						"bglocked" : 0,
						"defrect" : [ 1184.0, 583.0, 496.0, 428.0 ],
						"openrect" : [ 0.0, 0.0, 0.0, 0.0 ],
						"openinpresentation" : 0,
						"default_fontsize" : 12.0,
						"default_fontface" : 0,
						"default_fontname" : "Arial",
						"gridonopen" : 0,
						"gridsize" : [ 15.0, 15.0 ],
						"gridsnaponopen" : 0,
						"toolbarvisible" : 1,
						"boxanimatetime" : 200,
						"imprint" : 0,
						"enablehscroll" : 1,
						"enablevscroll" : 1,
						"devicewidth" : 0.0,
						"boxes" : [ 							{
								"box" : 								{
									"maxclass" : "comment",
									"text" : "done: do nothing",
									"fontsize" : 12.0,
									"numinlets" : 1,
									"patching_rect" : [ 360.0, 285.0, 100.0, 20.0 ],
									"numoutlets" : 0,
									"id" : "obj-14",
									"fontname" : "Arial"
								}

							}
, 							{
								"box" : 								{
									"maxclass" : "button",
									"numinlets" : 1,
									"patching_rect" : [ 330.0, 285.0, 20.0, 20.0 ],
									"numoutlets" : 1,
									"id" : "obj-12",
									"outlettype" : [ "bang" ]
								}

							}
, 							{
								"box" : 								{
									"maxclass" : "newobj",
									"text" : "buddy",
									"fontsize" : 12.0,
									"numinlets" : 2,
									"patching_rect" : [ 167.0, 284.0, 43.0, 20.0 ],
									"numoutlets" : 2,
									"id" : "obj-11",
									"fontname" : "Arial",
									"outlettype" : [ "", "" ]
								}

							}
, 							{
								"box" : 								{
									"maxclass" : "newobj",
									"text" : "zl slice 1",
									"fontsize" : 12.0,
									"numinlets" : 2,
									"patching_rect" : [ 166.0, 255.0, 57.0, 20.0 ],
									"numoutlets" : 2,
									"id" : "obj-10",
									"fontname" : "Arial",
									"outlettype" : [ "", "" ]
								}

							}
, 							{
								"box" : 								{
									"maxclass" : "newobj",
									"text" : "ctlout",
									"fontsize" : 12.0,
									"numinlets" : 3,
									"patching_rect" : [ 167.0, 357.0, 66.0, 20.0 ],
									"numoutlets" : 0,
									"id" : "obj-9",
									"fontname" : "Arial"
								}

							}
, 							{
								"box" : 								{
									"maxclass" : "newobj",
									"text" : "line",
									"fontsize" : 12.0,
									"numinlets" : 3,
									"patching_rect" : [ 167.0, 321.0, 46.0, 20.0 ],
									"numoutlets" : 2,
									"id" : "obj-8",
									"fontname" : "Arial",
									"outlettype" : [ "", "" ]
								}

							}
, 							{
								"box" : 								{
									"maxclass" : "newobj",
									"text" : "line",
									"fontsize" : 12.0,
									"numinlets" : 3,
									"patching_rect" : [ 245.0, 256.0, 46.0, 20.0 ],
									"numoutlets" : 2,
									"id" : "obj-7",
									"fontname" : "Arial",
									"outlettype" : [ "", "" ]
								}

							}
, 							{
								"box" : 								{
									"maxclass" : "newobj",
									"text" : "midiout",
									"fontsize" : 12.0,
									"numinlets" : 1,
									"patching_rect" : [ 245.0, 316.0, 49.0, 20.0 ],
									"numoutlets" : 0,
									"id" : "obj-4",
									"fontname" : "Arial"
								}

							}
, 							{
								"box" : 								{
									"maxclass" : "newobj",
									"text" : "xbendout",
									"fontsize" : 12.0,
									"numinlets" : 2,
									"patching_rect" : [ 245.0, 284.0, 60.0, 20.0 ],
									"numoutlets" : 1,
									"id" : "obj-6",
									"fontname" : "Arial",
									"outlettype" : [ "int" ]
								}

							}
, 							{
								"box" : 								{
									"maxclass" : "button",
									"numinlets" : 1,
									"patching_rect" : [ 30.0, 195.0, 20.0, 20.0 ],
									"numoutlets" : 1,
									"id" : "obj-5",
									"outlettype" : [ "bang" ]
								}

							}
, 							{
								"box" : 								{
									"maxclass" : "outlet",
									"numinlets" : 1,
									"patching_rect" : [ 30.0, 360.0, 25.0, 25.0 ],
									"numoutlets" : 0,
									"id" : "obj-2",
									"comment" : "event dispatch done (bang)"
								}

							}
, 							{
								"box" : 								{
									"maxclass" : "inlet",
									"numinlets" : 0,
									"patching_rect" : [ 15.0, 15.0, 25.0, 25.0 ],
									"numoutlets" : 1,
									"id" : "obj-1",
									"outlettype" : [ "" ],
									"comment" : ""
								}

							}
, 							{
								"box" : 								{
									"maxclass" : "message",
									"text" : "flush",
									"fontsize" : 12.0,
									"numinlets" : 2,
									"patching_rect" : [ 135.0, 112.0, 36.0, 18.0 ],
									"numoutlets" : 1,
									"id" : "obj-86",
									"fontname" : "Arial",
									"outlettype" : [ "" ]
								}

							}
, 							{
								"box" : 								{
									"maxclass" : "comment",
									"text" : "b/c timepoint bangs on transport start!!",
									"linecount" : 2,
									"fontsize" : 10.0,
									"numinlets" : 1,
									"patching_rect" : [ 175.0, 112.0, 98.0, 29.0 ],
									"numoutlets" : 0,
									"id" : "obj-78",
									"fontname" : "Arial"
								}

							}
, 							{
								"box" : 								{
									"maxclass" : "newobj",
									"text" : "noteout",
									"fontsize" : 12.0,
									"numinlets" : 3,
									"patching_rect" : [ 75.0, 320.0, 51.0, 20.0 ],
									"numoutlets" : 0,
									"id" : "obj-57",
									"fontname" : "Arial"
								}

							}
, 							{
								"box" : 								{
									"maxclass" : "newobj",
									"text" : "makenote",
									"fontsize" : 12.0,
									"numinlets" : 3,
									"patching_rect" : [ 75.0, 287.0, 80.0, 20.0 ],
									"numoutlets" : 2,
									"id" : "obj-56",
									"fontname" : "Arial",
									"outlettype" : [ "float", "float" ]
								}

							}
, 							{
								"box" : 								{
									"maxclass" : "newobj",
									"text" : "unpack 0 0 0",
									"fontsize" : 12.0,
									"numinlets" : 1,
									"patching_rect" : [ 75.0, 255.0, 80.0, 20.0 ],
									"numoutlets" : 3,
									"id" : "obj-55",
									"fontname" : "Arial",
									"outlettype" : [ "int", "int", "int" ]
								}

							}
, 							{
								"box" : 								{
									"maxclass" : "newobj",
									"text" : "route note controller bend done",
									"fontsize" : 12.0,
									"numinlets" : 1,
									"patching_rect" : [ 75.0, 195.0, 359.0, 20.0 ],
									"color" : [ 0.67451, 0.819608, 0.572549, 1.0 ],
									"numoutlets" : 5,
									"id" : "obj-54",
									"fontname" : "Arial",
									"outlettype" : [ "", "", "", "", "" ]
								}

							}
, 							{
								"box" : 								{
									"maxclass" : "newobj",
									"text" : "pv event",
									"fontsize" : 12.0,
									"numinlets" : 1,
									"patching_rect" : [ 75.0, 150.0, 56.0, 20.0 ],
									"numoutlets" : 1,
									"id" : "obj-50",
									"fontname" : "Arial",
									"outlettype" : [ "" ]
								}

							}
, 							{
								"box" : 								{
									"maxclass" : "newobj",
									"text" : "zl slice 1",
									"fontsize" : 12.0,
									"numinlets" : 2,
									"patching_rect" : [ 15.0, 75.0, 80.0, 20.0 ],
									"numoutlets" : 2,
									"id" : "obj-49",
									"fontname" : "Arial",
									"outlettype" : [ "", "" ]
								}

							}
, 							{
								"box" : 								{
									"maxclass" : "newobj",
									"text" : "timepoint",
									"fontsize" : 12.0,
									"numinlets" : 1,
									"patching_rect" : [ 15.0, 115.0, 61.0, 20.0 ],
									"numoutlets" : 1,
									"id" : "obj-17",
									"fontname" : "Arial",
									"outlettype" : [ "bang" ]
								}

							}
 ],
						"lines" : [ 							{
								"patchline" : 								{
									"source" : [ "obj-54", 3 ],
									"destination" : [ "obj-12", 0 ],
									"hidden" : 0,
									"midpoints" : [  ]
								}

							}
, 							{
								"patchline" : 								{
									"source" : [ "obj-7", 0 ],
									"destination" : [ "obj-6", 0 ],
									"hidden" : 0,
									"midpoints" : [  ]
								}

							}
, 							{
								"patchline" : 								{
									"source" : [ "obj-54", 2 ],
									"destination" : [ "obj-7", 0 ],
									"hidden" : 0,
									"midpoints" : [  ]
								}

							}
, 							{
								"patchline" : 								{
									"source" : [ "obj-54", 3 ],
									"destination" : [ "obj-86", 0 ],
									"hidden" : 0,
									"midpoints" : [ 339.5, 234.0, 451.0, 234.0, 451.0, 86.0, 144.5, 86.0 ]
								}

							}
, 							{
								"patchline" : 								{
									"source" : [ "obj-50", 0 ],
									"destination" : [ "obj-54", 0 ],
									"hidden" : 0,
									"midpoints" : [  ]
								}

							}
, 							{
								"patchline" : 								{
									"source" : [ "obj-54", 0 ],
									"destination" : [ "obj-55", 0 ],
									"hidden" : 0,
									"midpoints" : [  ]
								}

							}
, 							{
								"patchline" : 								{
									"source" : [ "obj-54", 0 ],
									"destination" : [ "obj-86", 0 ],
									"hidden" : 0,
									"midpoints" : [ 84.5, 234.0, 451.0, 234.0, 451.0, 86.0, 144.5, 86.0 ]
								}

							}
, 							{
								"patchline" : 								{
									"source" : [ "obj-54", 1 ],
									"destination" : [ "obj-86", 0 ],
									"hidden" : 0,
									"midpoints" : [ 169.5, 234.0, 451.0, 234.0, 451.0, 86.0, 144.5, 86.0 ]
								}

							}
, 							{
								"patchline" : 								{
									"source" : [ "obj-54", 2 ],
									"destination" : [ "obj-86", 0 ],
									"hidden" : 0,
									"midpoints" : [ 254.5, 234.0, 451.0, 234.0, 451.0, 86.0, 144.5, 86.0 ]
								}

							}
, 							{
								"patchline" : 								{
									"source" : [ "obj-5", 0 ],
									"destination" : [ "obj-2", 0 ],
									"hidden" : 0,
									"midpoints" : [  ]
								}

							}
, 							{
								"patchline" : 								{
									"source" : [ "obj-17", 0 ],
									"destination" : [ "obj-50", 0 ],
									"hidden" : 0,
									"midpoints" : [  ]
								}

							}
, 							{
								"patchline" : 								{
									"source" : [ "obj-86", 0 ],
									"destination" : [ "obj-50", 0 ],
									"hidden" : 0,
									"midpoints" : [  ]
								}

							}
, 							{
								"patchline" : 								{
									"source" : [ "obj-56", 1 ],
									"destination" : [ "obj-57", 1 ],
									"hidden" : 0,
									"midpoints" : [  ]
								}

							}
, 							{
								"patchline" : 								{
									"source" : [ "obj-56", 0 ],
									"destination" : [ "obj-57", 0 ],
									"hidden" : 0,
									"midpoints" : [  ]
								}

							}
, 							{
								"patchline" : 								{
									"source" : [ "obj-55", 2 ],
									"destination" : [ "obj-56", 2 ],
									"hidden" : 0,
									"midpoints" : [  ]
								}

							}
, 							{
								"patchline" : 								{
									"source" : [ "obj-55", 1 ],
									"destination" : [ "obj-56", 1 ],
									"hidden" : 0,
									"midpoints" : [  ]
								}

							}
, 							{
								"patchline" : 								{
									"source" : [ "obj-55", 0 ],
									"destination" : [ "obj-56", 0 ],
									"hidden" : 0,
									"midpoints" : [  ]
								}

							}
, 							{
								"patchline" : 								{
									"source" : [ "obj-49", 1 ],
									"destination" : [ "obj-50", 0 ],
									"hidden" : 0,
									"midpoints" : [  ]
								}

							}
, 							{
								"patchline" : 								{
									"source" : [ "obj-49", 0 ],
									"destination" : [ "obj-17", 0 ],
									"hidden" : 0,
									"midpoints" : [  ]
								}

							}
, 							{
								"patchline" : 								{
									"source" : [ "obj-1", 0 ],
									"destination" : [ "obj-49", 0 ],
									"hidden" : 0,
									"midpoints" : [  ]
								}

							}
, 							{
								"patchline" : 								{
									"source" : [ "obj-50", 0 ],
									"destination" : [ "obj-5", 0 ],
									"hidden" : 0,
									"midpoints" : [  ]
								}

							}
, 							{
								"patchline" : 								{
									"source" : [ "obj-6", 0 ],
									"destination" : [ "obj-4", 0 ],
									"hidden" : 0,
									"midpoints" : [  ]
								}

							}
, 							{
								"patchline" : 								{
									"source" : [ "obj-8", 0 ],
									"destination" : [ "obj-9", 0 ],
									"hidden" : 0,
									"midpoints" : [  ]
								}

							}
, 							{
								"patchline" : 								{
									"source" : [ "obj-10", 0 ],
									"destination" : [ "obj-11", 1 ],
									"hidden" : 0,
									"midpoints" : [  ]
								}

							}
, 							{
								"patchline" : 								{
									"source" : [ "obj-10", 1 ],
									"destination" : [ "obj-11", 0 ],
									"hidden" : 0,
									"midpoints" : [  ]
								}

							}
, 							{
								"patchline" : 								{
									"source" : [ "obj-11", 1 ],
									"destination" : [ "obj-9", 1 ],
									"hidden" : 0,
									"midpoints" : [  ]
								}

							}
, 							{
								"patchline" : 								{
									"source" : [ "obj-11", 0 ],
									"destination" : [ "obj-8", 0 ],
									"hidden" : 0,
									"midpoints" : [  ]
								}

							}
, 							{
								"patchline" : 								{
									"source" : [ "obj-54", 1 ],
									"destination" : [ "obj-10", 0 ],
									"hidden" : 0,
									"midpoints" : [  ]
								}

							}
 ]
					}
,
					"saved_object_attributes" : 					{
						"globalpatchername" : "",
						"fontface" : 0,
						"fontsize" : 12.0,
						"default_fontface" : 0,
						"default_fontname" : "Arial",
						"fontname" : "Arial",
						"default_fontsize" : 12.0
					}

				}

			}
, 			{
				"box" : 				{
					"maxclass" : "comment",
					"text" : "music_loom_player.maxpat:\nwrapper for Ruby code with hooks into Max for timing & event processing",
					"linecount" : 4,
					"fontsize" : 12.0,
					"numinlets" : 1,
					"patching_rect" : [ 30.0, 15.0, 176.0, 62.0 ],
					"numoutlets" : 0,
					"id" : "obj-43",
					"fontname" : "Arial Bold"
				}

			}
, 			{
				"box" : 				{
					"maxclass" : "newobj",
					"text" : "loadbang",
					"fontsize" : 12.0,
					"numinlets" : 1,
					"patching_rect" : [ 30.0, 90.0, 61.0, 20.0 ],
					"color" : [ 0.827451, 0.827451, 0.827451, 1.0 ],
					"numoutlets" : 1,
					"id" : "obj-15",
					"fontname" : "Arial",
					"outlettype" : [ "bang" ]
				}

			}
, 			{
				"box" : 				{
					"maxclass" : "message",
					"text" : ";\rmax setmirrortoconsole 1",
					"linecount" : 2,
					"fontsize" : 12.0,
					"numinlets" : 2,
					"patching_rect" : [ 30.0, 120.0, 146.0, 32.0 ],
					"numoutlets" : 1,
					"id" : "obj-10",
					"fontname" : "Arial",
					"outlettype" : [ "" ]
				}

			}
, 			{
				"box" : 				{
					"maxclass" : "newobj",
					"text" : "mxj jruby 1 2",
					"fontsize" : 14.0,
					"numinlets" : 1,
					"patching_rect" : [ 360.0, 195.0, 199.0, 23.0 ],
					"color" : [ 0.811765, 0.372549, 0.372549, 1.0 ],
					"numoutlets" : 2,
					"id" : "obj-4",
					"fontname" : "Arial Bold",
					"outlettype" : [ "", "" ]
				}

			}
, 			{
				"box" : 				{
					"maxclass" : "newobj",
					"text" : "midiout",
					"fontsize" : 12.0,
					"numinlets" : 1,
					"patching_rect" : [ 30.0, 195.0, 52.0, 20.0 ],
					"color" : [ 0.827451, 0.827451, 0.827451, 1.0 ],
					"numoutlets" : 0,
					"id" : "obj-2",
					"fontname" : "Arial"
				}

			}
, 			{
				"box" : 				{
					"maxclass" : "newobj",
					"text" : "midiin",
					"fontsize" : 12.0,
					"numinlets" : 1,
					"patching_rect" : [ 30.0, 165.0, 45.0, 20.0 ],
					"color" : [ 0.827451, 0.827451, 0.827451, 1.0 ],
					"numoutlets" : 1,
					"id" : "obj-1",
					"fontname" : "Arial",
					"outlettype" : [ "int" ]
				}

			}
 ],
		"lines" : [ 			{
				"patchline" : 				{
					"source" : [ "obj-4", 1 ],
					"destination" : [ "obj-9", 0 ],
					"hidden" : 0,
					"midpoints" : [  ]
				}

			}
, 			{
				"patchline" : 				{
					"source" : [ "obj-1", 0 ],
					"destination" : [ "obj-2", 0 ],
					"hidden" : 0,
					"midpoints" : [  ]
				}

			}
, 			{
				"patchline" : 				{
					"source" : [ "obj-15", 0 ],
					"destination" : [ "obj-10", 0 ],
					"hidden" : 0,
					"midpoints" : [  ]
				}

			}
, 			{
				"patchline" : 				{
					"source" : [ "obj-4", 0 ],
					"destination" : [ "obj-14", 0 ],
					"hidden" : 0,
					"color" : [ 0.811765, 0.372549, 0.372549, 1.0 ],
					"midpoints" : [  ]
				}

			}
, 			{
				"patchline" : 				{
					"source" : [ "obj-8", 0 ],
					"destination" : [ "obj-4", 0 ],
					"hidden" : 0,
					"midpoints" : [  ]
				}

			}
, 			{
				"patchline" : 				{
					"source" : [ "obj-3", 0 ],
					"destination" : [ "obj-8", 0 ],
					"hidden" : 0,
					"midpoints" : [  ]
				}

			}
, 			{
				"patchline" : 				{
					"source" : [ "obj-14", 0 ],
					"destination" : [ "obj-19", 0 ],
					"hidden" : 0,
					"color" : [ 0.811765, 0.372549, 0.372549, 1.0 ],
					"midpoints" : [  ]
				}

			}
, 			{
				"patchline" : 				{
					"source" : [ "obj-4", 1 ],
					"destination" : [ "obj-19", 1 ],
					"hidden" : 0,
					"midpoints" : [  ]
				}

			}
, 			{
				"patchline" : 				{
					"source" : [ "obj-19", 0 ],
					"destination" : [ "obj-4", 0 ],
					"hidden" : 0,
					"color" : [ 0.811765, 0.372549, 0.372549, 1.0 ],
					"midpoints" : [ 369.5, 350.0, 349.0, 350.0, 349.0, 182.0, 369.5, 182.0 ]
				}

			}
, 			{
				"patchline" : 				{
					"source" : [ "obj-11", 0 ],
					"destination" : [ "obj-20", 0 ],
					"hidden" : 0,
					"midpoints" : [  ]
				}

			}
, 			{
				"patchline" : 				{
					"source" : [ "obj-20", 0 ],
					"destination" : [ "obj-4", 0 ],
					"hidden" : 0,
					"midpoints" : [  ]
				}

			}
, 			{
				"patchline" : 				{
					"source" : [ "obj-4", 1 ],
					"destination" : [ "obj-20", 1 ],
					"hidden" : 0,
					"midpoints" : [ 549.5, 237.0, 573.0, 237.0, 573.0, 86.0, 549.5, 86.0 ]
				}

			}
, 			{
				"patchline" : 				{
					"source" : [ "obj-20", 1 ],
					"destination" : [ "obj-30", 0 ],
					"hidden" : 0,
					"midpoints" : [  ]
				}

			}
 ]
	}

}
